<?xml version="1.0" encoding="utf-8"?>
<!-- Generator: Adobe Illustrator 16.0.0, SVG Export Plug-In . SVG Version: 6.00 Build 0)  -->
<!DOCTYPE svg PUBLIC "-//W3C//DTD SVG 1.1//EN" "http://www.w3.org/Graphics/SVG/1.1/DTD/svg11.dtd">
<svg version="1.1" id="Layer_1" xmlns="http://www.w3.org/2000/svg" xmlns:xlink="http://www.w3.org/1999/xlink" x="0px" y="0px"
	 width="400px" height="400px" viewBox="0 0 400 400" enable-background="new 0 0 400 400" xml:space="preserve">
<path d="M75,176h65c2.76,0,5-2.24,5-5s-2.24-5-5-5H75c-2.76,0-5,2.24-5,5S72.24,176,75,176z"/>
<path d="M140,206H85c-2.76,0-5,2.24-5,5s2.24,5,5,5h55c2.76,0,5-2.24,5-5S142.76,206,140,206z"/>
<path d="M55,196h85c2.76,0,5-2.24,5-5s-2.24-5-5-5H55c-2.76,0-5,2.24-5,5S52.24,196,55,196z"/>
<path d="M145,231c0-2.76-2.24-5-5-5H45c-2.76,0-5,2.24-5,5s2.24,5,5,5h95C142.76,236,145,233.76,145,231z"/>
<path d="M169.205,258.5h176.593c7.845,0,14.205-6.438,14.205-14.375v-86.25c0-7.94-6.36-14.375-14.205-14.375H169.205
	c-7.845,0-14.205,6.435-14.205,14.375v86.25C155,252.062,161.36,258.5,169.205,258.5z M165,157.875c0-2.413,1.885-4.375,4.205-4.375
	h176.593c2.319,0,4.205,1.962,4.205,4.375v86.25c0,2.412-1.886,4.375-4.205,4.375H169.205c-2.32,0-4.205-1.963-4.205-4.375V157.875z
	"/>
<path d="M257.5,238.346c20.625,0,37.346-16.721,37.346-37.351c0-20.615-16.721-37.337-37.346-37.337s-37.346,16.722-37.346,37.337
	C220.158,221.625,236.875,238.346,257.5,238.346z M257.5,173.658c15.078,0,27.346,12.262,27.346,27.337
	c0,15.083-12.266,27.351-27.346,27.351c-15.078,0-27.346-12.268-27.346-27.351C230.158,185.92,242.422,173.658,257.5,173.658z"/>
<path d="M176.913,226.471c1.205,0.951,2.782,1.289,4.27,0.927c0.04-0.01,4.065-0.857,7.482,1.25c2.48,1.527,4.223,4.383,5.17,8.482
	c0.525,2.265,2.545,3.87,4.87,3.87H205c2.76,0,5-2.24,5-5s-2.24-5-5-5h-2.572c-1.795-4.838-4.648-8.484-8.515-10.867
	c-3.093-1.905-6.27-2.638-8.913-2.848v-32.57c2.643-0.21,5.817-0.942,8.913-2.847c3.867-2.383,6.72-6.03,8.515-10.868H205
	c2.76,0,5-2.24,5-5s-2.24-5-5-5h-6.295c-2.328,0-4.345,1.605-4.87,3.87c-2.562,11.06-10.365,10.237-12.652,9.735
	c-1.488-0.362-3.065-0.02-4.27,0.928c-1.21,0.947-1.913,2.395-1.913,3.93v43.075C175,224.07,175.703,225.522,176.913,226.471z"/>
<path d="M248.633,211.742c1.545,2.305,3.307,3.678,6.265,4.12v1.528c0,1.201,1.452,2.177,2.603,2.177
	c1.147,0,2.603-0.978,2.603-2.177v-1.496c1.708-0.244,2.837-0.819,4.3-1.795c1.772-1.185,3.168-3.102,3.426-5.289
	c0.504-4.232-1.855-7.815-5.764-9.011c-0.822-0.252-1.129-0.505-1.962-0.75v-8.135c0.739,0.225,0.913,0.55,1.497,0.98
	c0.998,0.735,1.663,1.882,2.107,3.047c0.34,0.885,0.973,1.85,1.934,2.085c0.975,0.245,2.069-0.385,2.225-1.472
	c0.195-1.383-0.293-2.935-1.5-4.733c-0.745-1.115-1.65-2.012-2.69-2.662c-1.247-0.783-2.13-1.255-3.569-1.495l0.02-2.055
	c0-1.205-1.455-2.182-2.605-2.182c-1.145,0-2.598,0.977-2.598,2.182l-0.021,1.982c-0.365,0.055-0.205,0.133-0.553,0.233
	c-2.947,0.85-5.705,2.777-6.388,6.025c-0.476,2.272-0.235,4.882,1.34,6.652c1.593,1.791,3.386,2.478,5.598,3.08v9.053
	c-1.302-0.42-1.927-1.137-2.61-2.095c-0.709-0.99-0.977-2.237-1.729-3.198c-0.825-1.049-2.573-1.227-3.21,0.083
	c-0.485,0.995-0.183,2.438,0.237,3.413C247.87,210.492,248.232,211.15,248.633,211.742z M260.103,203.603
	c0.399,0.122,0.277,0.245,0.665,0.396c2.535,0.977,3.689,3.955,1.91,6.234c-0.725,0.938-1.325,1.49-2.572,1.721v-8.351H260.103z
	 M252.34,195.913c-1.223-2.125,0.678-4.325,2.558-5v7.083C253.643,197.632,253.02,197.087,252.34,195.913z"/>
<path d="M321.088,220.133c-3.868,2.383-6.721,6.027-8.516,10.867H310c-2.76,0-5,2.24-5,5s2.24,5,5,5h6.295
	c2.327,0,4.345-1.605,4.87-3.873c2.565-11.057,10.372-10.236,12.655-9.732c1.484,0.36,3.064,0.025,4.27-0.928
	c1.208-0.947,1.913-2.396,1.913-3.93v-43.075c0-1.518-0.716-2.942-1.897-3.893c-1.186-0.95-2.768-1.307-4.235-0.978
	c-2.335,0.513-10.14,1.338-12.702-9.722c-0.525-2.268-2.546-3.87-4.87-3.87H310c-2.76,0-5,2.24-5,5s2.24,5,5,5h2.572
	c1.795,4.837,4.647,8.485,8.516,10.868c3.092,1.905,6.27,2.637,8.912,2.847v32.57C327.357,217.498,324.183,218.23,321.088,220.133z"
	/>
</svg>
