<?xml version="1.0" encoding="utf-8"?>
<!-- Generator: Adobe Illustrator 16.0.0, SVG Export Plug-In . SVG Version: 6.00 Build 0)  -->
<!DOCTYPE svg PUBLIC "-//W3C//DTD SVG 1.1//EN" "http://www.w3.org/Graphics/SVG/1.1/DTD/svg11.dtd">
<svg version="1.1" id="Layer_1" xmlns="http://www.w3.org/2000/svg" xmlns:xlink="http://www.w3.org/1999/xlink" x="0px" y="0px"
	 width="400px" height="400px" viewBox="0 0 400 400" enable-background="new 0 0 400 400" xml:space="preserve">
<path d="M200,131c2.76,0,5-2.24,5-5V46c0-2.763-2.24-5-5-5c-2.763,0-5,2.24-5,5v80C195,128.76,197.237,131,200,131z"/>
<path d="M230,141c2.76,0,5-2.24,5-5V76c0-2.76-2.24-5-5-5c-2.763,0-5,2.24-5,5v60C225,138.76,227.237,141,230,141z"/>
<path d="M170,141c2.76,0,5-2.24,5-5V76c0-2.76-2.24-5-5-5c-2.763,0-5,2.24-5,5v60C165,138.76,167.237,141,170,141z"/>
<path d="M340,141h-95v10h95c5.515,0,10,4.465,10,9.953v150.09c0,5.49-4.485,9.955-10,9.955H60c-5.515,0-10-4.465-10-9.955v-150.09
	c0-5.488,4.485-9.953,10-9.953h95v-10H60c-11.045,0-20,8.933-20,19.953v150.09C40,322.064,48.955,331,60,331h110v20h-30
	c-2.763,0-5,2.24-5,5s2.237,5,5,5h120c2.76,0,5-2.24,5-5s-2.24-5-5-5h-30v-20h110c11.045,0,20-8.936,20-19.955V160.953
	C360,149.933,351.045,141,340,141z M220,351h-40v-20h40V351z"/>
<path d="M125,235.995c0,41.42,33.587,75.005,75.007,75.005C241.42,311,275,277.415,275,235.995C275,194.58,241.42,161,200.007,161
	C158.587,161,125,194.58,125,235.995z M265,235.995C265,271.84,235.846,301,200.007,301C164.163,301,135,271.84,135,235.995
	C135,200.158,164.163,171,200.007,171C235.846,171,265,200.158,265,235.995z"/>
<path d="M195,196.625v4.783c-5.328,0.842-10.237,2.809-13.79,5.621c-9.513,7.533-7.345,22.721,2.88,28.275
	c3.255,1.768,7.078,2.933,10.908,4.072v21.656c-2.663-1.125-5.502-2.816-6.393-5.346c-0.885-2.248-3.255-3.658-5.62-3.658h-0.297
	c-4.735,0-7.69,4.783-5.623,8.438c0.888,1.688,2.368,3.379,3.85,4.504c3.547,2.812,8.757,4.5,14.083,5.344v5.061
	c0,3.093,1.598,5.625,4.853,5.625c3.257,0,5.15-2.533,5.15-5.625v-5.061c5.328-0.844,10.535-2.814,14.082-6.189
	c7.623-7.248,7.783-22.303-1.965-27.888c-3.662-2.097-8.042-2.979-12.117-3.892c0,0,0-20.812,0.002-20.812
	c2.219,1.052,4.623,1.986,5.5,4.5c1.186,1.967,3.256,3.375,5.623,3.375c4.734,0,7.692-4.781,5.328-8.719
	c-3.056-5.799-10.471-8.215-16.453-9.279v-4.785c0-3.092-1.6-5.625-4.853-5.625C196.893,191,195,193.533,195,196.625z M195,228.971
	c-4.533-1.25-6.917-2.693-7.808-6.858c-1.022-4.79,1.605-8.462,5.482-10.468c0.735-0.379,1.518-0.699,2.325-0.957V228.971z
	 M205,242.471c0.013-0.028,2.967,0.406,4.84,1.92c4.058,3.277,5.178,9.566,0.96,13.549c-1.188,1.123-4.024,2.248-5.8,2.811
	C205,260.748,205,242.513,205,242.471z"/>
</svg>
