<?xml version="1.0" encoding="utf-8"?>
<!-- Generator: Adobe Illustrator 16.0.0, SVG Export Plug-In . SVG Version: 6.00 Build 0)  -->
<!DOCTYPE svg PUBLIC "-//W3C//DTD SVG 1.1//EN" "http://www.w3.org/Graphics/SVG/1.1/DTD/svg11.dtd">
<svg version="1.1" id="Layer_1" xmlns="http://www.w3.org/2000/svg" xmlns:xlink="http://www.w3.org/1999/xlink" x="0px" y="0px"
	 width="400px" height="400px" viewBox="0 0 400 400" enable-background="new 0 0 400 400" xml:space="preserve">
<g>
	<path d="M201,154.137c-17.824,0-34.585,6.944-47.185,19.543c-12.6,12.6-19.543,29.361-19.543,47.185
		c0,17.82,6.944,34.584,19.543,47.184c12.6,12.597,29.36,19.544,47.185,19.544s34.585-6.947,47.185-19.544
		c12.596-12.6,19.544-29.359,19.544-47.184s-6.948-34.585-19.544-47.185C235.585,161.081,218.824,154.137,201,154.137z
		 M231.066,179.698L201,209.765l-30.067-30.067c8.683-6.367,19.096-9.86,30.067-9.86S222.385,173.331,231.066,179.698z
		 M159.833,190.798l30.067,30.067l-30.067,30.066c-6.366-8.687-9.86-19.096-9.86-30.066S153.466,199.48,159.833,190.798z
		 M170.933,262.032L201,231.965l30.066,30.067c-8.682,6.362-19.096,9.86-30.066,9.86S179.616,268.395,170.933,262.032z
		 M242.168,250.932l-30.067-30.066l30.067-30.067c6.361,8.683,9.859,19.097,9.859,30.067S248.529,242.249,242.168,250.932z"/>
	<path d="M307.553,110.246l-44.998-44.999c-5.268-5.268-14.861-9.24-22.303-9.24h-9.812h-31.402h-86.354
		c-15.147,0-27.476,12.329-27.476,27.477v235.51c0,15.147,12.329,27.477,27.476,27.477h176.633
		c15.147,0,27.477-12.329,27.477-27.477V201.238v-58.877v-9.813C316.793,125.103,312.82,115.513,307.553,110.246z M290.031,114.92
		c-0.244-0.004-0.472-0.035-0.715-0.035H269.69c-6.492,0-11.775-5.284-11.775-11.776V83.484c0-0.244-0.031-0.471-0.035-0.71
		L290.031,114.92z M301.092,318.994c0,6.492-5.283,11.775-11.775,11.775H112.684c-6.492,0-11.775-5.283-11.775-11.775V83.484
		c0-6.493,5.283-11.776,11.775-11.776h86.354h31.402c6.492,0,11.775,5.283,11.775,11.776v19.625
		c0,15.147,12.328,27.477,27.476,27.477h19.626c6.492,0,11.775,5.283,11.775,11.775v58.877V318.994z"/>
</g>
</svg>
